<svg width="55" height="55" viewBox="0 0 55 55" fill="none" xmlns="http://www.w3.org/2000/svg">
<g clip-path="url(#clip0_4824_2570)">
<path d="M8.56671 37.2719C8.5648 37.2815 8.563 37.2911 8.56137 37.3008L6.96429 46.5544C6.89293 46.9677 7.0269 47.3897 7.32336 47.6861C7.32456 47.6873 7.32579 47.6886 7.32704 47.6898C7.62599 47.9863 8.05092 48.1184 8.46528 48.0434L17.5585 46.3985C20.4505 45.9459 22.8528 43.9422 23.8308 41.1658C24.7996 38.4151 24.2159 35.5011 22.269 33.3705C22.1793 33.2724 22.0864 33.1752 21.9929 33.0817C21.8993 32.9882 21.8022 32.8953 21.7039 32.8054C19.5975 30.8807 16.7046 30.2705 13.9654 31.1731C11.1525 32.1 9.13422 34.3799 8.56671 37.2719Z" fill="#F27B1D"/>
<path d="M7.32336 47.6861C7.32456 47.6873 7.32579 47.6886 7.32704 47.6898C7.62599 47.9863 8.05092 48.1184 8.46528 48.0434L17.5585 46.3985C20.4505 45.9459 22.8528 43.9422 23.8308 41.1658C24.7996 38.4151 24.2159 35.5011 22.269 33.3705C22.1793 33.2724 22.0864 33.1752 21.9929 33.0817L7.32336 47.6861Z" fill="#FFD370"/>
<path d="M14.8803 35.3018C14.8793 35.3069 14.8783 35.312 14.8775 35.3171L14.0314 40.2193C13.9936 40.4383 14.0646 40.6618 14.2216 40.8189C14.2223 40.8195 14.2229 40.8201 14.2236 40.8208C14.3819 40.9779 14.6071 41.0478 14.8266 41.0081L19.6438 40.1367C21.1759 39.897 22.4485 38.8355 22.9666 37.3647C23.4798 35.9075 23.1706 34.3637 22.1392 33.2351C22.0916 33.183 22.0424 33.1316 21.9929 33.0821C21.9434 33.0325 21.8919 32.9833 21.8398 32.9357C20.7239 31.916 19.1914 31.5928 17.7403 32.0709C16.2501 32.562 15.1809 33.7698 14.8803 35.3018Z" fill="#C11D26"/>
<path d="M14.2217 40.8186C14.2223 40.8192 14.2229 40.8199 14.2236 40.8206C14.382 40.9776 14.6071 41.0476 14.8266 41.0079L19.6438 40.1365C21.1759 39.8967 22.4485 38.8353 22.9666 37.3644C23.4799 35.9072 23.1706 34.3635 22.1392 33.2348C22.0917 33.1828 22.0425 33.1313 21.993 33.0818L14.2217 40.8186Z" fill="#F54831"/>
<path d="M18.7261 34.0875C18.7257 34.0899 18.7252 34.0922 18.7248 34.0945L18.3375 36.3388C18.3202 36.439 18.3527 36.5414 18.4246 36.6132C18.4249 36.6135 18.4251 36.6138 18.4255 36.6141C18.498 36.686 18.601 36.7181 18.7015 36.6999L20.9069 36.3009C21.6083 36.1912 22.1909 35.7052 22.428 35.0319C22.663 34.3648 22.5214 33.658 22.0493 33.1413C22.0275 33.1175 22.0049 33.0939 21.9822 33.0712C21.9595 33.0485 21.936 33.026 21.9122 33.0042C21.4013 32.5374 20.6997 32.3894 20.0353 32.6083C19.3532 32.8332 18.8637 33.3861 18.7261 34.0875Z" fill="#F27B1D"/>
<path d="M18.4245 36.6135C18.4248 36.6137 18.425 36.614 18.4254 36.6144C18.4979 36.6862 18.6009 36.7183 18.7014 36.7001L20.9068 36.3012C21.6082 36.1914 22.1908 35.7055 22.428 35.0321C22.6629 34.365 22.5214 33.6582 22.0492 33.1415C22.0274 33.1177 22.0048 33.0941 21.9821 33.0715L18.4245 36.6135Z" fill="#FFD370"/>
</g>
<path d="M54.6835 0.299295C54.4732 0.100096 54.2213 0 53.9271 0C48.4447 0 43.9179 0.745479 40.347 2.2371C36.7764 3.72894 33.0163 6.43871 29.0671 10.3664C27.3869 12.0679 25.5381 14.1161 23.5217 16.5107L11.58 17.1406C11.2438 17.1833 10.9708 17.351 10.7608 17.6449L3.70279 29.7448C3.45062 30.1648 3.50337 30.5746 3.86028 30.9737L5.8767 32.9901C6.06586 33.1793 6.30722 33.2736 6.60144 33.2736C6.72759 33.2736 6.82184 33.263 6.88485 33.242L15.5816 30.5632L24.4357 39.4176L21.7573 48.1133C21.6526 48.4919 21.7366 48.8276 22.0095 49.1218L24.026 51.1385C24.2571 51.3269 24.4989 51.4217 24.7508 51.4217C24.9401 51.4217 25.1081 51.3793 25.255 51.2955L37.355 44.2376C37.6492 44.0277 37.8169 43.755 37.8591 43.4189L38.489 31.477C40.8839 29.4603 42.9324 27.612 44.6335 25.9313C48.3737 22.1709 51.0355 18.3851 52.621 14.5728C54.2072 10.7602 54.9999 6.23852 54.9999 1.00847C54.9996 0.735436 54.8946 0.499267 54.6835 0.299295ZM47.0594 12.2256C46.4717 12.8134 45.7571 13.1078 44.9168 13.1078C44.0765 13.1078 43.3627 12.8137 42.7743 12.2256C42.1866 11.6374 41.892 10.9232 41.892 10.0828C41.892 9.24283 42.1863 8.52848 42.7743 7.94026C43.3623 7.35237 44.0765 7.05816 44.9168 7.05816C45.7571 7.05816 46.4714 7.35204 47.0594 7.94026C47.6474 8.52848 47.9416 9.24283 47.9416 10.0828C47.9416 10.9233 47.6482 11.637 47.0594 12.2256Z" fill="white"/>
<path d="M54.6835 0.299295C54.4732 0.100096 54.2213 0 53.9271 0C48.4447 0 43.9179 0.745479 40.347 2.2371C36.7764 3.72894 33.0163 6.43871 29.0671 10.3664C27.3869 12.0679 25.5381 14.1161 23.5217 16.5107L11.58 17.1406C11.2438 17.1833 10.9708 17.351 10.7608 17.6449L3.70279 29.7448C3.45062 30.1648 3.50337 30.5746 3.86028 30.9737L5.8767 32.9901C6.06586 33.1793 6.30722 33.2736 6.60144 33.2736C6.72759 33.2736 6.82184 33.263 6.88485 33.242L15.5816 30.5632L24.4357 39.4176L21.7573 48.1133C21.6526 48.4919 21.7366 48.8276 22.0095 49.1218L24.026 51.1385C24.2571 51.3269 24.4989 51.4217 24.7508 51.4217C24.9401 51.4217 25.1081 51.3793 25.255 51.2955L37.355 44.2376C37.6492 44.0277 37.8169 43.755 37.8591 43.4189L38.489 31.477C40.8839 29.4603 42.9324 27.612 44.6335 25.9313C48.3737 22.1709 51.0355 18.3851 52.621 14.5728C54.2072 10.7602 54.9999 6.23852 54.9999 1.00847C54.9996 0.735436 54.8946 0.499267 54.6835 0.299295ZM47.0594 12.2256C46.4717 12.8134 45.7571 13.1078 44.9168 13.1078C44.0765 13.1078 43.3627 12.8137 42.7743 12.2256C42.1866 11.6374 41.892 10.9232 41.892 10.0828C41.892 9.24283 42.1863 8.52848 42.7743 7.94026C43.3623 7.35237 44.0765 7.05816 44.9168 7.05816C45.7571 7.05816 46.4714 7.35204 47.0594 7.94026C47.6474 8.52848 47.9416 9.24283 47.9416 10.0828C47.9416 10.9233 47.6482 11.637 47.0594 12.2256Z" stroke="black"/>
<g clip-path="url(#clip1_4824_2570)">
<path d="M25.768 33.2178L25.7112 32.6805L26.6043 30.8528L28.0673 30.1609C28.206 30.0953 28.3276 29.9839 28.4157 29.8414L28.7621 29.2809C29.6361 29.329 30.6798 29.1694 31.6532 28.4589C32.6084 27.7618 33.9809 26.5779 35.249 25.4417C35.0284 25.1878 34.4224 24.7345 34.4224 24.7345C34.8994 24.7583 35.3759 24.8752 35.7482 24.9922C35.787 24.9571 35.8257 24.922 35.8642 24.8871C35.6294 24.6596 35.3677 24.4372 35.3677 24.4372C35.6438 24.4687 35.9179 24.5325 36.1714 24.6078C36.4333 24.3691 36.6833 24.1395 36.9165 23.9244C36.9743 23.9424 37.0356 23.9511 37.0991 23.9479L39.6925 23.8175L41.2181 24.1741C41.3462 24.204 41.483 24.1844 41.6082 24.1187L42.2113 23.8011C42.3942 23.7046 42.5264 23.5252 42.5846 23.3226C42.6289 23.1686 42.6306 23.001 42.5793 22.8467C42.4605 22.4893 42.1031 22.3371 41.781 22.5064L41.3708 22.7226L40.0365 22.4108C40.0106 22.4025 39.9837 22.3958 39.956 22.3914L38.4162 22.1473C38.3922 22.0918 38.3648 22.0299 38.3335 21.961L39.8162 21.8888L39.8541 21.893C39.9657 21.9053 40.0759 21.8817 40.1756 21.8307L41.4782 21.5061C41.5385 21.4911 41.5975 21.466 41.6532 21.4317L42.2403 21.0702C42.4047 20.969 42.5214 20.801 42.5752 20.6139C42.6239 20.4446 42.6208 20.2597 42.5542 20.0954C42.4143 19.7501 42.0467 19.6265 41.7333 19.8196L41.23 20.1295L39.9387 20.4512L38.7825 20.3248L37.374 20.6789L38.7063 19.8334C38.6948 19.1006 38.7757 18.1956 39.0111 17.526C39.308 16.6815 38.6196 15.518 38.0974 15.5211C38.0971 15.5211 38.0969 15.5211 38.0966 15.5211C38.0829 15.4535 38.0509 15.3921 37.9994 15.3494C37.8768 15.2477 37.6967 15.2876 37.5972 15.4386C37.5601 15.4947 37.5396 15.5583 37.5345 15.6212C36.2331 14.275 35.6946 14.0855 34.2817 16.0206C34.2012 16.1309 34.1284 16.2433 34.061 16.3572L32.6913 17.2353C32.6218 17.2799 32.6303 17.3955 32.7043 17.4115L33.4372 17.5701L32.7464 18.0322C32.6773 18.0785 32.6866 18.1939 32.7608 18.2102L33.4227 18.3563C33.3796 18.7116 33.3627 19.0668 33.3589 19.4149C33.3286 19.4257 33.2979 19.4366 33.268 19.4475C33.268 19.4475 33.2677 19.4478 33.2677 19.4478C32.8582 19.5452 32.3134 19.708 31.8139 19.9669C31.8139 19.9669 32.1971 19.9977 32.5271 20.0509C32.1296 20.2165 31.4554 20.533 30.8775 20.9817C30.8775 20.9817 31.2972 20.9266 31.6443 20.9106C30.592 21.8148 29.1306 22.9945 27.568 24.0232C27.498 24.0693 27.4337 24.1162 27.3692 24.1631L27.3754 24.1524C27.3754 24.1524 27.2914 24.1984 27.1527 24.2824C26.4351 24.6002 23.5337 25.57 19.976 22.4635C19.6024 22.1373 19.042 22.247 18.7244 22.7087C18.4069 23.1702 18.452 23.8086 18.8256 24.135C20.0665 25.2185 21.2561 25.8786 22.3441 26.2608C22.2643 25.8652 22.1085 25.3345 22.1085 25.3345C22.4667 25.6797 22.7764 26.1081 23.0029 26.4621C24.0823 26.7446 25.0409 26.7611 25.8227 26.667L25.0408 28.058L24.7132 28.0533C24.5404 28.0509 24.367 28.122 24.226 28.253L22.3869 29.9626C22.2602 30.0803 22.1681 30.2402 22.122 30.4157L21.9145 31.225C21.8009 31.6678 22.0134 32.1008 22.3888 32.1926C22.7643 32.2844 23.1612 31.9976 23.2743 31.5568L23.4121 31.0192L24.8371 29.6945L25.623 29.7056C25.5837 29.7559 25.5474 29.8093 25.5183 29.8688L24.3656 32.2275C24.2866 32.3898 24.2534 32.5733 24.272 32.749L24.3575 33.5573C24.4043 33.9998 24.758 34.2823 25.1476 34.1885C25.5368 34.0946 25.8147 33.6599 25.768 33.2178ZM36.402 16.3117C36.2525 16.1877 36.6922 15.5212 36.8416 15.6451C36.9911 15.7691 37.0138 16.0188 36.8924 16.2029C36.771 16.387 36.5514 16.4357 36.402 16.3117Z" fill="black"/>
</g>
<defs>
<clipPath id="clip0_4824_2570">
<rect width="20.6999" height="20.6999" fill="white" transform="matrix(-0.707114 -0.7071 0.707114 -0.7071 14.6372 55)"/>
</clipPath>
<clipPath id="clip1_4824_2570">
<rect width="21.9495" height="23.1618" fill="white" transform="matrix(0.276413 -0.961039 0.961042 0.276403 16.0839 31.6667)"/>
</clipPath>
</defs>
</svg>
